<mxfile host="app.diagrams.net" modified="2023-08-01T10:43:35.865Z" agent="Mozilla/5.0 (Windows NT 10.0; Win64; x64) AppleWebKit/537.36 (KHTML, like Gecko) Chrome/115.0.0.0 Safari/537.36" etag="a1RF_pPFFqJLiFZbvnGu" version="21.6.6" type="device">
  <diagram name="Page-1" id="YLcs5O80J-tHJau1NP1s">
    <mxGraphModel dx="2610" dy="778" grid="1" gridSize="10" guides="1" tooltips="1" connect="1" arrows="1" fold="1" page="1" pageScale="1" pageWidth="850" pageHeight="1100" math="0" shadow="0">
      <root>
        <mxCell id="0" />
        <mxCell id="1" parent="0" />
        <mxCell id="TqyXYLaArxzFyNG-PbWd-26" style="edgeStyle=orthogonalEdgeStyle;rounded=0;orthogonalLoop=1;jettySize=auto;html=1;exitX=1;exitY=0.5;exitDx=0;exitDy=0;entryX=0;entryY=0.5;entryDx=0;entryDy=0;curved=1;" edge="1" parent="1" source="TqyXYLaArxzFyNG-PbWd-1" target="TqyXYLaArxzFyNG-PbWd-17">
          <mxGeometry relative="1" as="geometry" />
        </mxCell>
        <mxCell id="TqyXYLaArxzFyNG-PbWd-29" value="" style="edgeStyle=orthogonalEdgeStyle;rounded=0;orthogonalLoop=1;jettySize=auto;html=1;" edge="1" parent="1" source="TqyXYLaArxzFyNG-PbWd-1" target="TqyXYLaArxzFyNG-PbWd-21">
          <mxGeometry relative="1" as="geometry" />
        </mxCell>
        <mxCell id="TqyXYLaArxzFyNG-PbWd-31" style="edgeStyle=orthogonalEdgeStyle;rounded=0;orthogonalLoop=1;jettySize=auto;html=1;exitX=0.75;exitY=1;exitDx=0;exitDy=0;entryX=0.25;entryY=0;entryDx=0;entryDy=0;curved=1;" edge="1" parent="1" source="TqyXYLaArxzFyNG-PbWd-1" target="TqyXYLaArxzFyNG-PbWd-19">
          <mxGeometry relative="1" as="geometry" />
        </mxCell>
        <mxCell id="TqyXYLaArxzFyNG-PbWd-34" style="edgeStyle=orthogonalEdgeStyle;rounded=0;orthogonalLoop=1;jettySize=auto;html=1;exitX=0.25;exitY=1;exitDx=0;exitDy=0;entryX=0.75;entryY=0;entryDx=0;entryDy=0;curved=1;" edge="1" parent="1" source="TqyXYLaArxzFyNG-PbWd-1" target="TqyXYLaArxzFyNG-PbWd-23">
          <mxGeometry relative="1" as="geometry" />
        </mxCell>
        <mxCell id="TqyXYLaArxzFyNG-PbWd-36" style="edgeStyle=orthogonalEdgeStyle;rounded=0;orthogonalLoop=1;jettySize=auto;html=1;exitX=0;exitY=0.5;exitDx=0;exitDy=0;entryX=1;entryY=0.5;entryDx=0;entryDy=0;curved=1;" edge="1" parent="1" source="TqyXYLaArxzFyNG-PbWd-1" target="TqyXYLaArxzFyNG-PbWd-24">
          <mxGeometry relative="1" as="geometry" />
        </mxCell>
        <mxCell id="TqyXYLaArxzFyNG-PbWd-1" value="Other skills" style="rounded=1;whiteSpace=wrap;html=1;fillColor=#f8cecc;strokeColor=#b85450;fontSize=24;" vertex="1" parent="1">
          <mxGeometry x="310" y="420" width="140" height="60" as="geometry" />
        </mxCell>
        <mxCell id="TqyXYLaArxzFyNG-PbWd-10" style="edgeStyle=orthogonalEdgeStyle;rounded=0;orthogonalLoop=1;jettySize=auto;html=1;exitX=0.5;exitY=0;exitDx=0;exitDy=0;entryX=0.5;entryY=1;entryDx=0;entryDy=0;curved=1;" edge="1" parent="1" source="TqyXYLaArxzFyNG-PbWd-2" target="TqyXYLaArxzFyNG-PbWd-4">
          <mxGeometry relative="1" as="geometry" />
        </mxCell>
        <mxCell id="TqyXYLaArxzFyNG-PbWd-11" style="edgeStyle=orthogonalEdgeStyle;rounded=0;orthogonalLoop=1;jettySize=auto;html=1;exitX=1;exitY=0.25;exitDx=0;exitDy=0;entryX=0.25;entryY=1;entryDx=0;entryDy=0;curved=1;" edge="1" parent="1" source="TqyXYLaArxzFyNG-PbWd-2" target="TqyXYLaArxzFyNG-PbWd-5">
          <mxGeometry relative="1" as="geometry" />
        </mxCell>
        <mxCell id="TqyXYLaArxzFyNG-PbWd-12" style="edgeStyle=orthogonalEdgeStyle;rounded=0;orthogonalLoop=1;jettySize=auto;html=1;exitX=1;exitY=0.75;exitDx=0;exitDy=0;entryX=0;entryY=0.5;entryDx=0;entryDy=0;curved=1;" edge="1" parent="1" source="TqyXYLaArxzFyNG-PbWd-2" target="TqyXYLaArxzFyNG-PbWd-6">
          <mxGeometry relative="1" as="geometry" />
        </mxCell>
        <mxCell id="TqyXYLaArxzFyNG-PbWd-2" value="C#" style="rounded=1;whiteSpace=wrap;html=1;fillColor=#d5e8d4;strokeColor=#82b366;fontSize=24;" vertex="1" parent="1">
          <mxGeometry x="350" y="310" width="120" height="60" as="geometry" />
        </mxCell>
        <mxCell id="TqyXYLaArxzFyNG-PbWd-41" style="edgeStyle=orthogonalEdgeStyle;rounded=0;orthogonalLoop=1;jettySize=auto;html=1;exitX=0.5;exitY=0;exitDx=0;exitDy=0;curved=1;" edge="1" parent="1" source="TqyXYLaArxzFyNG-PbWd-3" target="TqyXYLaArxzFyNG-PbWd-38">
          <mxGeometry relative="1" as="geometry" />
        </mxCell>
        <mxCell id="TqyXYLaArxzFyNG-PbWd-42" style="edgeStyle=orthogonalEdgeStyle;rounded=0;orthogonalLoop=1;jettySize=auto;html=1;exitX=0;exitY=0.5;exitDx=0;exitDy=0;entryX=1;entryY=0.5;entryDx=0;entryDy=0;curved=1;" edge="1" parent="1" source="TqyXYLaArxzFyNG-PbWd-3" target="TqyXYLaArxzFyNG-PbWd-39">
          <mxGeometry relative="1" as="geometry" />
        </mxCell>
        <mxCell id="TqyXYLaArxzFyNG-PbWd-3" value="Web" style="rounded=1;whiteSpace=wrap;html=1;fillColor=#dae8fc;strokeColor=#6c8ebf;fontSize=24;" vertex="1" parent="1">
          <mxGeometry x="190" y="330" width="120" height="60" as="geometry" />
        </mxCell>
        <mxCell id="TqyXYLaArxzFyNG-PbWd-13" style="edgeStyle=orthogonalEdgeStyle;rounded=0;orthogonalLoop=1;jettySize=auto;html=1;exitX=0.5;exitY=0;exitDx=0;exitDy=0;entryX=0.5;entryY=1;entryDx=0;entryDy=0;curved=1;" edge="1" parent="1" source="TqyXYLaArxzFyNG-PbWd-4" target="TqyXYLaArxzFyNG-PbWd-7">
          <mxGeometry relative="1" as="geometry" />
        </mxCell>
        <mxCell id="TqyXYLaArxzFyNG-PbWd-4" value="Frameworks" style="rounded=1;whiteSpace=wrap;html=1;fillColor=#d5e8d4;strokeColor=#82b366;fontSize=18;" vertex="1" parent="1">
          <mxGeometry x="325" y="240" width="130" height="30" as="geometry" />
        </mxCell>
        <mxCell id="TqyXYLaArxzFyNG-PbWd-14" style="edgeStyle=orthogonalEdgeStyle;rounded=0;orthogonalLoop=1;jettySize=auto;html=1;exitX=0.5;exitY=0;exitDx=0;exitDy=0;entryX=0.25;entryY=1;entryDx=0;entryDy=0;curved=1;" edge="1" parent="1" source="TqyXYLaArxzFyNG-PbWd-5" target="TqyXYLaArxzFyNG-PbWd-8">
          <mxGeometry relative="1" as="geometry" />
        </mxCell>
        <mxCell id="TqyXYLaArxzFyNG-PbWd-5" value="Unit testing" style="rounded=1;whiteSpace=wrap;html=1;fillColor=#d5e8d4;strokeColor=#82b366;fontSize=18;" vertex="1" parent="1">
          <mxGeometry x="485" y="260" width="130" height="30" as="geometry" />
        </mxCell>
        <mxCell id="TqyXYLaArxzFyNG-PbWd-15" style="edgeStyle=orthogonalEdgeStyle;rounded=0;orthogonalLoop=1;jettySize=auto;html=1;exitX=1;exitY=0.25;exitDx=0;exitDy=0;entryX=0;entryY=0.5;entryDx=0;entryDy=0;curved=1;" edge="1" parent="1" source="TqyXYLaArxzFyNG-PbWd-6" target="TqyXYLaArxzFyNG-PbWd-9">
          <mxGeometry relative="1" as="geometry" />
        </mxCell>
        <mxCell id="TqyXYLaArxzFyNG-PbWd-6" value="Libraries&lt;br&gt;&amp;nbsp;&amp;amp; Other" style="rounded=1;whiteSpace=wrap;html=1;fillColor=#d5e8d4;strokeColor=#82b366;fontSize=18;" vertex="1" parent="1">
          <mxGeometry x="525" y="340" width="90" height="65" as="geometry" />
        </mxCell>
        <mxCell id="TqyXYLaArxzFyNG-PbWd-7" value=".Net Core&lt;br&gt;Asp .Net,&lt;br&gt;WPF" style="rounded=1;whiteSpace=wrap;html=1;fillColor=#d5e8d4;strokeColor=#82b366;fontSize=12;" vertex="1" parent="1">
          <mxGeometry x="350" y="130" width="90" height="70" as="geometry" />
        </mxCell>
        <mxCell id="TqyXYLaArxzFyNG-PbWd-8" value="XUnit,&lt;br&gt;FluentAssertions,&lt;br&gt;AutoFixture" style="rounded=1;whiteSpace=wrap;html=1;fillColor=#d5e8d4;strokeColor=#82b366;fontSize=12;" vertex="1" parent="1">
          <mxGeometry x="560" y="150" width="130" height="70" as="geometry" />
        </mxCell>
        <mxCell id="TqyXYLaArxzFyNG-PbWd-9" value="IoC Container,&lt;br&gt;AutoMapper,&lt;br&gt;MediatR,&lt;br&gt;ReactiveX,&lt;br&gt;FluentValidaton,&lt;br&gt;Flurl,&lt;br&gt;Blazor&lt;br&gt;RabbitMQ,&amp;nbsp;" style="rounded=1;whiteSpace=wrap;html=1;fillColor=#d5e8d4;strokeColor=#82b366;fontSize=12;" vertex="1" parent="1">
          <mxGeometry x="680" y="260" width="130" height="140" as="geometry" />
        </mxCell>
        <mxCell id="TqyXYLaArxzFyNG-PbWd-27" value="" style="edgeStyle=orthogonalEdgeStyle;rounded=0;orthogonalLoop=1;jettySize=auto;html=1;curved=1;" edge="1" parent="1" source="TqyXYLaArxzFyNG-PbWd-17" target="TqyXYLaArxzFyNG-PbWd-18">
          <mxGeometry relative="1" as="geometry" />
        </mxCell>
        <mxCell id="TqyXYLaArxzFyNG-PbWd-17" value="Metodologies" style="rounded=1;whiteSpace=wrap;html=1;fillColor=#f8cecc;strokeColor=#b85450;fontSize=18;" vertex="1" parent="1">
          <mxGeometry x="525" y="470" width="145" height="40" as="geometry" />
        </mxCell>
        <mxCell id="TqyXYLaArxzFyNG-PbWd-18" value="Scrum, &lt;br&gt;TDD,&lt;br&gt;Clean Code&lt;br&gt;Pair programming,&lt;br&gt;Code Review" style="rounded=1;whiteSpace=wrap;html=1;fillColor=#f8cecc;strokeColor=#b85450;fontSize=12;" vertex="1" parent="1">
          <mxGeometry x="720" y="460" width="110" height="90" as="geometry" />
        </mxCell>
        <mxCell id="TqyXYLaArxzFyNG-PbWd-32" style="edgeStyle=orthogonalEdgeStyle;rounded=0;orthogonalLoop=1;jettySize=auto;html=1;exitX=0.5;exitY=1;exitDx=0;exitDy=0;entryX=0;entryY=0.5;entryDx=0;entryDy=0;curved=1;" edge="1" parent="1" source="TqyXYLaArxzFyNG-PbWd-19" target="TqyXYLaArxzFyNG-PbWd-20">
          <mxGeometry relative="1" as="geometry" />
        </mxCell>
        <mxCell id="TqyXYLaArxzFyNG-PbWd-19" value="Platforms" style="rounded=1;whiteSpace=wrap;html=1;fillColor=#f8cecc;strokeColor=#b85450;fontSize=18;" vertex="1" parent="1">
          <mxGeometry x="460" y="560" width="110" height="40" as="geometry" />
        </mxCell>
        <mxCell id="TqyXYLaArxzFyNG-PbWd-20" value="GitHub,&lt;br&gt;GitLab,&lt;br&gt;BitBuket,&lt;br&gt;Jira,&lt;br&gt;Confuence" style="rounded=1;whiteSpace=wrap;html=1;fillColor=#f8cecc;strokeColor=#b85450;fontSize=12;" vertex="1" parent="1">
          <mxGeometry x="580" y="610" width="110" height="90" as="geometry" />
        </mxCell>
        <mxCell id="TqyXYLaArxzFyNG-PbWd-33" style="edgeStyle=orthogonalEdgeStyle;rounded=0;orthogonalLoop=1;jettySize=auto;html=1;exitX=0.75;exitY=1;exitDx=0;exitDy=0;entryX=0.5;entryY=0;entryDx=0;entryDy=0;curved=1;" edge="1" parent="1" source="TqyXYLaArxzFyNG-PbWd-21" target="TqyXYLaArxzFyNG-PbWd-22">
          <mxGeometry relative="1" as="geometry" />
        </mxCell>
        <mxCell id="TqyXYLaArxzFyNG-PbWd-21" value="Tools" style="rounded=1;whiteSpace=wrap;html=1;fillColor=#f8cecc;strokeColor=#b85450;fontSize=18;" vertex="1" parent="1">
          <mxGeometry x="325" y="570" width="110" height="40" as="geometry" />
        </mxCell>
        <mxCell id="TqyXYLaArxzFyNG-PbWd-22" value="Docker, &lt;br&gt;Git,&lt;br&gt;Visual Studio,&lt;br&gt;VSCode,&lt;br&gt;Rider,&lt;br&gt;WebStorm&amp;nbsp;" style="rounded=1;whiteSpace=wrap;html=1;fillColor=#f8cecc;strokeColor=#b85450;fontSize=12;" vertex="1" parent="1">
          <mxGeometry x="360" y="660" width="110" height="100" as="geometry" />
        </mxCell>
        <mxCell id="TqyXYLaArxzFyNG-PbWd-35" style="edgeStyle=orthogonalEdgeStyle;rounded=0;orthogonalLoop=1;jettySize=auto;html=1;exitX=0.5;exitY=1;exitDx=0;exitDy=0;entryX=0.5;entryY=0;entryDx=0;entryDy=0;curved=1;" edge="1" parent="1" source="TqyXYLaArxzFyNG-PbWd-23" target="TqyXYLaArxzFyNG-PbWd-25">
          <mxGeometry relative="1" as="geometry" />
        </mxCell>
        <mxCell id="TqyXYLaArxzFyNG-PbWd-23" value="Databases" style="rounded=1;whiteSpace=wrap;html=1;fillColor=#f8cecc;strokeColor=#b85450;fontSize=18;" vertex="1" parent="1">
          <mxGeometry x="170" y="550" width="110" height="40" as="geometry" />
        </mxCell>
        <mxCell id="TqyXYLaArxzFyNG-PbWd-24" value="Python" style="rounded=1;whiteSpace=wrap;html=1;fillColor=#f8cecc;strokeColor=#b85450;fontSize=18;" vertex="1" parent="1">
          <mxGeometry x="100" y="450" width="110" height="40" as="geometry" />
        </mxCell>
        <mxCell id="TqyXYLaArxzFyNG-PbWd-25" value="MySQL,&lt;br&gt;PostgreSQL,&lt;br&gt;MSSQL" style="rounded=1;whiteSpace=wrap;html=1;fillColor=#f8cecc;strokeColor=#b85450;fontSize=12;" vertex="1" parent="1">
          <mxGeometry x="150" y="640" width="90" height="70" as="geometry" />
        </mxCell>
        <mxCell id="TqyXYLaArxzFyNG-PbWd-37" value="HTML,&lt;br&gt;Javascript, TypeScript,&lt;br&gt;CSS,&lt;br&gt;React,&lt;br&gt;Angular" style="rounded=1;whiteSpace=wrap;html=1;fillColor=#dae8fc;strokeColor=#6c8ebf;fontSize=12;" vertex="1" parent="1">
          <mxGeometry x="130" y="90" width="90" height="110" as="geometry" />
        </mxCell>
        <mxCell id="TqyXYLaArxzFyNG-PbWd-40" style="edgeStyle=orthogonalEdgeStyle;rounded=0;orthogonalLoop=1;jettySize=auto;html=1;entryX=0.5;entryY=1;entryDx=0;entryDy=0;curved=1;" edge="1" parent="1" source="TqyXYLaArxzFyNG-PbWd-38" target="TqyXYLaArxzFyNG-PbWd-37">
          <mxGeometry relative="1" as="geometry" />
        </mxCell>
        <mxCell id="TqyXYLaArxzFyNG-PbWd-38" value="Languages &amp;amp; Libraries" style="rounded=1;whiteSpace=wrap;html=1;fillColor=#dae8fc;strokeColor=#6c8ebf;fontSize=18;" vertex="1" parent="1">
          <mxGeometry x="150" y="240" width="140" height="60" as="geometry" />
        </mxCell>
        <mxCell id="TqyXYLaArxzFyNG-PbWd-44" style="edgeStyle=orthogonalEdgeStyle;rounded=0;orthogonalLoop=1;jettySize=auto;html=1;exitX=0.5;exitY=0;exitDx=0;exitDy=0;entryX=0.75;entryY=1;entryDx=0;entryDy=0;curved=1;" edge="1" parent="1" source="TqyXYLaArxzFyNG-PbWd-39" target="TqyXYLaArxzFyNG-PbWd-43">
          <mxGeometry relative="1" as="geometry" />
        </mxCell>
        <mxCell id="TqyXYLaArxzFyNG-PbWd-39" value="Tools" style="rounded=1;whiteSpace=wrap;html=1;fillColor=#dae8fc;strokeColor=#6c8ebf;fontSize=18;" vertex="1" parent="1">
          <mxGeometry x="60" y="340" width="90" height="40" as="geometry" />
        </mxCell>
        <mxCell id="TqyXYLaArxzFyNG-PbWd-43" value="NodeJS,&lt;br&gt;NPM,&lt;br&gt;WebSockets,&lt;br&gt;GraphQL,&lt;br&gt;Jasmine/Karma" style="rounded=1;whiteSpace=wrap;html=1;fillColor=#dae8fc;strokeColor=#6c8ebf;fontSize=12;" vertex="1" parent="1">
          <mxGeometry x="-20" y="170" width="120" height="110" as="geometry" />
        </mxCell>
      </root>
    </mxGraphModel>
  </diagram>
</mxfile>
